<svg width="31" height="17" viewBox="0 0 31 17" fill="none" xmlns="http://www.w3.org/2000/svg">
<path d="M15.5 14.0946L1.98095 0.352949C1.872 0.239811 1.74265 0.150366 1.6004 0.0897903C1.45814 0.0292148 1.30579 -0.00128942 1.15218 4.38187e-05C0.99856 0.00137515 0.846721 0.0345211 0.705447 0.097557C0.564173 0.160593 0.436269 0.25227 0.329137 0.367281C0.222004 0.482294 0.137771 0.618359 0.081311 0.767601C0.024851 0.916843 -0.00271444 1.0763 0.000209837 1.23675C0.00313411 1.39719 0.0364901 1.55544 0.0983474 1.70233C0.160205 1.84922 0.249335 1.98183 0.360581 2.0925L14.6898 16.6562C14.9067 16.8767 15.1974 17 15.5 17C15.8026 17 16.0933 16.8767 16.3102 16.6562L30.6394 2.0925C30.7507 1.98183 30.8398 1.84922 30.9017 1.70233C30.9635 1.55544 30.9969 1.39719 30.9998 1.23675C31.0027 1.0763 30.9751 0.916842 30.9187 0.7676C30.8622 0.618357 30.778 0.482293 30.6709 0.36728C30.5637 0.252268 30.4358 0.160592 30.2946 0.0975557C30.1533 0.0345198 30.0014 0.00137389 29.8478 4.25643e-05C29.6942 -0.00129067 29.5419 0.0292136 29.3996 0.0897891C29.2573 0.150365 29.128 0.23981 29.0191 0.352948L15.5 14.0946Z" fill="#BFBFBF"/>
</svg>
