<svg width="66" height="56" viewBox="0 0 66 56" fill="none" xmlns="http://www.w3.org/2000/svg">
<path d="M8.75879 0.5H42.7207V5.72266H8.25879V50.2773H49.4639V34.7227H54.208V49.7773C54.208 52.9619 51.8098 55.5 48.9639 55.5H8.75879C5.91307 55.4997 3.51562 52.9617 3.51562 49.7773V6.22266C3.51562 3.13753 5.76601 0.659491 8.49414 0.507812L8.75879 0.5ZM42.7207 31.5801V43.0244H37.9775V31.5801H42.7207ZM31.2334 12.9131V43.0244H26.4902V12.9131H31.2334ZM19.7461 22.2471V43.0244H15.0029V22.2471H19.7461ZM54.208 3.61133V12.9443H62.8232V18.167H54.208V27.5H49.4639V18.167H40.8486V12.9443H49.4639V3.61133H54.208Z" fill="#EB5F85" stroke="#EB5F85"/>
</svg>
