<svg width="59" height="65" viewBox="0 0 59 65" fill="none" xmlns="http://www.w3.org/2000/svg">
<path d="M45.5488 31.57C45.8457 31.57 46.0864 31.8107 46.0864 32.1076C46.0864 32.4046 45.8457 32.6453 45.5488 32.6453H13.2915C12.9946 32.6453 12.7539 32.4046 12.7539 32.1076C12.7539 31.8107 12.9946 31.57 13.2915 31.57H45.5488Z" fill="#EB5F85"/>
<path fill-rule="evenodd" clip-rule="evenodd" d="M50.4301 2.32773C50.5466 2.05467 50.862 1.92781 51.1351 2.04421C51.4082 2.16073 51.5351 2.47674 51.4186 2.74984L51.4179 2.75124C51.4173 2.75258 51.4169 2.75484 51.4158 2.75754C51.4134 2.76323 51.4095 2.77182 51.4046 2.78344C51.3947 2.80678 51.3798 2.84193 51.3605 2.88845C51.3218 2.98162 51.2645 3.12082 51.1918 3.30146C51.0462 3.66274 50.8379 4.19151 50.5876 4.85903C50.0868 6.19496 49.4187 8.08555 48.7508 10.2996C47.412 14.7373 46.0858 20.4381 46.0858 25.5785C46.0858 28.5895 47.0496 31.1516 48.4259 33.7268L48.7067 34.242C49.589 35.8369 50.5926 37.4101 51.6139 39.1275C52.6278 40.8327 53.6409 42.6509 54.5001 44.6766C55.866 47.9013 56.8382 51.6423 56.8382 56.3006C56.8382 56.5975 56.5975 56.8382 56.3006 56.8382C56.0037 56.8382 55.7629 56.5975 55.7629 56.3006C55.7629 52.0844 54.9403 48.6584 53.7525 45.6854L53.5103 45.0967C53.4598 44.9778 53.4064 44.8607 53.3548 44.7431C37.6033 44.8285 31.1819 52.7163 29.9305 56.4707L29.4202 58.001L28.9099 56.4707C27.6583 52.7162 21.2365 44.8278 5.48341 44.7431C5.43192 44.8606 5.37909 44.9779 5.3287 45.0967V45.0981C3.81525 48.636 3.04811 52.4485 3.07601 56.2964C3.07816 56.5932 2.83939 56.8359 2.54259 56.8382C2.24577 56.8404 2.00308 56.6016 2.00077 56.3048C1.97175 52.3088 2.76786 48.3493 4.33956 44.6752C5.19866 42.65 6.21134 40.8323 7.22508 39.1275C8.24638 37.41 9.24994 35.8369 10.1323 34.242C11.6564 31.4911 12.7531 28.7902 12.7532 25.5785C12.7532 20.4381 11.4269 14.7373 10.0882 10.2996C9.42024 8.08555 8.75212 6.19496 8.25132 4.85903C8.00108 4.1915 7.79271 3.66273 7.64719 3.30146C7.57443 3.12082 7.51717 2.98162 7.47849 2.88845C7.45918 2.84195 7.44421 2.80677 7.43439 2.78344C7.42956 2.77199 7.42629 2.76323 7.42388 2.75754C7.42273 2.75481 7.42166 2.75258 7.42108 2.75124L7.42038 2.74984C7.30387 2.47674 7.43079 2.16073 7.7039 2.04421C7.97698 1.92775 8.29232 2.05464 8.40882 2.32773L7.91461 2.53843C8.40911 2.32747 8.40875 2.32756 8.40882 2.32773L8.40952 2.32843C8.40973 2.3289 8.40988 2.32971 8.41022 2.33053C8.41094 2.33221 8.41241 2.33442 8.41372 2.33753C8.41647 2.34401 8.42038 2.35377 8.42563 2.36623C8.43613 2.39117 8.45181 2.42792 8.47183 2.47613C8.5119 2.57266 8.56979 2.71533 8.64403 2.89965C8.7925 3.26824 9.00433 3.80514 9.25796 4.48171C9.76519 5.8348 10.4411 7.74775 11.1172 9.98883C12.4666 14.4616 13.8284 20.2811 13.8284 25.5785C13.8284 25.7856 13.8235 25.9907 13.8151 26.1938H45.0238C45.0155 25.9907 45.0105 25.7856 45.0105 25.5785C45.0105 20.2811 46.3724 14.4616 47.7217 9.98883C48.3978 7.74774 49.0737 5.83481 49.581 4.48171C49.8346 3.80515 50.0465 3.26824 50.1949 2.89965C50.2692 2.71533 50.3277 2.57266 50.3678 2.47613C50.3878 2.42803 50.4028 2.39114 50.4133 2.36623C50.4186 2.35375 50.4225 2.34401 50.4252 2.33753C50.4265 2.33443 50.428 2.33222 50.4287 2.33053C50.4291 2.32973 50.4292 2.3289 50.4294 2.32843C50.4295 2.32826 50.4299 2.32748 50.9243 2.53843L50.4301 2.32773ZM13.7325 27.269C13.4202 30.0154 12.3747 32.4143 11.0731 34.7635L11.0724 34.7628C10.1807 36.3747 9.14582 38.0009 8.14911 39.677C7.39388 40.9471 6.64913 42.2633 5.97273 43.6721C20.3444 43.8948 27.2384 50.5391 29.4202 54.9146C31.6018 50.5393 38.4953 43.8954 52.8655 43.6721C52.1892 42.2634 51.445 40.947 50.6898 39.677C49.6931 38.0009 48.6576 36.3747 47.7658 34.7628C46.4643 32.4138 45.4188 30.0151 45.1064 27.269H13.7325Z" fill="#EB5F85"/>
<path d="M8.40882 2.32773C8.29232 2.05464 7.97698 1.92775 7.7039 2.04421C7.43079 2.16073 7.30387 2.47674 7.42038 2.74984L7.42108 2.75124C7.42166 2.75258 7.42273 2.75481 7.42388 2.75754C7.42629 2.76323 7.42956 2.77199 7.43439 2.78344C7.44421 2.80677 7.45918 2.84195 7.47849 2.88845C7.51717 2.98162 7.57443 3.12082 7.64719 3.30146C7.79271 3.66273 8.00108 4.1915 8.25132 4.85903C8.75212 6.19496 9.42024 8.08555 10.0882 10.2996C11.4269 14.7373 12.7532 20.4381 12.7532 25.5785C12.7531 28.7902 11.6564 31.4911 10.1323 34.242C9.24994 35.8369 8.24638 37.41 7.22508 39.1275C6.21134 40.8323 5.19866 42.65 4.33956 44.6752C2.76786 48.3493 1.97175 52.3088 2.00077 56.3048C2.00308 56.6016 2.24577 56.8404 2.54259 56.8382C2.83939 56.8359 3.07816 56.5932 3.07601 56.2964C3.04811 52.4485 3.81525 48.636 5.3287 45.0981V45.0967C5.37909 44.9779 5.43192 44.8606 5.48341 44.7431C21.2365 44.8278 27.6583 52.7162 28.9099 56.4707L29.4202 58.001L29.9305 56.4707C31.182 52.7163 37.6033 44.8285 53.3548 44.7431C53.4064 44.8607 53.4598 44.9778 53.5102 45.0967L53.7525 45.6854C54.9403 48.6584 55.7629 52.0844 55.7629 56.3006C55.7629 56.5975 56.0037 56.8382 56.3006 56.8382C56.5975 56.8382 56.8382 56.5975 56.8382 56.3006C56.8382 51.6423 55.866 47.9013 54.5001 44.6766C53.6409 42.6509 52.6278 40.8327 51.6139 39.1275C50.5926 37.4101 49.589 35.8369 48.7067 34.242L48.4259 33.7268C47.0496 31.1516 46.0858 28.5895 46.0857 25.5785C46.0857 20.4381 47.412 14.7373 48.7508 10.2996C49.4187 8.08555 50.0868 6.19496 50.5876 4.85903C50.8379 4.19151 51.0462 3.66274 51.1918 3.30146C51.2645 3.12082 51.3218 2.98162 51.3605 2.88845C51.3798 2.84193 51.3947 2.80678 51.4046 2.78344C51.4095 2.77182 51.4134 2.76323 51.4158 2.75754C51.4169 2.75484 51.4173 2.75258 51.4179 2.75124L51.4186 2.74984C51.5351 2.47674 51.4082 2.16073 51.1351 2.04421C50.862 1.92781 50.5466 2.05467 50.4301 2.32773L50.9243 2.53843C50.4299 2.32748 50.4295 2.32826 50.4294 2.32843C50.4292 2.3289 50.4291 2.32973 50.4287 2.33053C50.428 2.33222 50.4265 2.33443 50.4252 2.33753C50.4225 2.34401 50.4186 2.35375 50.4133 2.36623C50.4028 2.39114 50.3878 2.42803 50.3678 2.47613C50.3277 2.57266 50.2692 2.71533 50.1949 2.89965C50.0465 3.26824 49.8346 3.80515 49.581 4.48171C49.0738 5.83481 48.3978 7.74774 47.7217 9.98883C46.3724 14.4616 45.0105 20.2811 45.0105 25.5785C45.0105 25.7856 45.0155 25.9907 45.0238 26.1938H13.8151C13.8235 25.9907 13.8284 25.7856 13.8284 25.5785C13.8284 20.2811 12.4666 14.4616 11.1172 9.98883C10.4411 7.74775 9.76519 5.8348 9.25796 4.48171C9.00433 3.80514 8.7925 3.26824 8.64403 2.89965C8.56979 2.71533 8.5119 2.57266 8.47183 2.47613C8.45181 2.42792 8.43613 2.39117 8.42563 2.36623C8.42038 2.35377 8.41647 2.34401 8.41373 2.33753C8.41241 2.33442 8.41094 2.33221 8.41022 2.33053C8.40988 2.32971 8.40973 2.3289 8.40952 2.32843L8.40882 2.32773ZM8.40882 2.32773L7.9146 2.53843C8.40911 2.32747 8.40875 2.32756 8.40882 2.32773ZM13.7325 27.269C13.4202 30.0154 12.3747 32.4143 11.0731 34.7635L11.0724 34.7628C10.1807 36.3747 9.14582 38.0009 8.14911 39.677C7.39388 40.9471 6.64913 42.2633 5.97273 43.6721C20.3444 43.8948 27.2384 50.5391 29.4202 54.9146C31.6018 50.5393 38.4953 43.8954 52.8655 43.6721C52.1892 42.2634 51.445 40.947 50.6898 39.677C49.6931 38.0009 48.6576 36.3747 47.7658 34.7628C46.4643 32.4138 45.4188 30.0151 45.1064 27.269H13.7325ZM45.5488 31.57C45.8457 31.57 46.0864 31.8107 46.0864 32.1076C46.0864 32.4046 45.8457 32.6453 45.5488 32.6453H13.2915C12.9946 32.6453 12.7539 32.4046 12.7539 32.1076C12.7539 31.8107 12.9946 31.57 13.2915 31.57H45.5488Z" stroke="#EB5F85" stroke-width="4" stroke-linecap="round"/>
</svg>
