<svg width="61" height="59" viewBox="0 0 61 59" fill="none" xmlns="http://www.w3.org/2000/svg">
<path d="M13.1924 18.3867V22.5137H5.94141C5.52677 22.5137 5.12825 22.6784 4.83496 22.9717C4.54181 23.2649 4.37706 23.6627 4.37695 24.0771V52.5801L10.1211 48.0576L10.1289 48.0508L10.3779 47.8623C10.4713 47.7912 10.5714 47.7174 10.666 47.6562C10.8644 47.5281 11.1093 47.4053 11.3818 47.4053H36.7734C37.188 47.4052 37.5857 47.2405 37.8789 46.9473C38.1721 46.6541 38.3368 46.2563 38.3369 45.8418V43.7773H42.4639V46.0684L42.4668 46.3389C42.4575 46.9687 42.3353 47.5926 42.1055 48.1807C41.8426 48.853 41.4442 49.4653 40.9355 49.9775C40.427 50.4895 39.8186 50.8917 39.1484 51.1592C38.5619 51.3932 37.9385 51.5195 37.3086 51.5332L37.0381 51.5322H12.752L3.47754 58.3574L3.47656 58.3584C3.18136 58.5719 2.83409 58.704 2.47168 58.7402C2.10926 58.7765 1.74356 58.7152 1.41211 58.5645L1.40625 58.5615C1.06234 58.393 0.770671 58.1322 0.566406 57.8076C0.362474 57.4833 0.253102 57.1085 0.25 56.7256V24.0771C0.250108 22.568 0.849789 21.1199 1.91699 20.0527C2.98425 18.9857 4.43231 18.3867 5.94141 18.3867H13.1924ZM38.5176 5.69141L38.4287 6.00879C38.1028 7.16776 37.9346 8.36546 37.9297 9.56934L37.9287 9.81836H22.2637C21.8491 9.81842 21.4514 9.98313 21.1582 10.2764C20.865 10.5696 20.7002 10.9673 20.7002 11.3818V33.1455C20.7002 33.56 20.8651 33.9577 21.1582 34.251C21.4514 34.5442 21.8491 34.7099 22.2637 34.71H47.4561C47.9121 34.7114 48.3547 34.8641 48.7148 35.1436H48.7158L54.6602 39.7793V22.4746L54.8398 22.4229C56.0322 22.0781 57.171 21.5683 58.2227 20.9092L58.6055 20.6689V43.8828L58.6006 44.0283C58.5758 44.3664 58.4674 44.6947 58.2852 44.9824C58.077 45.3108 57.7803 45.5731 57.4297 45.7402L57.4238 45.7432C57.0907 45.8909 56.7238 45.948 56.3613 45.9082C55.999 45.8683 55.6526 45.7333 55.3594 45.5166L55.3555 45.5137L46.7539 38.8369H22.2637C20.7545 38.8369 19.3065 38.2372 18.2393 37.1699C17.1721 36.1026 16.5732 34.6547 16.5732 33.1455V11.3818C16.5733 9.87261 17.172 8.42469 18.2393 7.35742C19.3065 6.29018 20.7545 5.69147 22.2637 5.69141H38.5176ZM51.7617 0.261719C56.6853 0.511168 60.6006 4.58275 60.6006 9.56836C60.6005 14.7147 56.4286 18.8867 51.2822 18.8867C46.136 18.8866 41.9639 14.7146 41.9639 9.56836C41.9639 4.42208 46.136 0.250109 51.2822 0.25L51.7617 0.261719Z" fill="#EB5F85" stroke="#EB5F85" stroke-width="0.5"/>
</svg>
