<svg width="69" height="62" viewBox="0 0 69 62" fill="none" xmlns="http://www.w3.org/2000/svg">
<path d="M14.5934 2.95762C18.2858 1.71964 22.2755 1.68108 25.9912 2.84716C29.325 3.89346 32.2842 5.86251 34.5352 8.51365C35.9262 6.89397 37.5885 5.52426 39.4522 4.47033C41.6639 3.2196 44.1105 2.43899 46.6378 2.17708C49.165 1.91521 51.7191 2.17793 54.1402 2.94849C56.5614 3.71911 58.7976 4.98131 60.7086 6.65586C62.6196 8.33034 64.164 10.3813 65.2459 12.6802C66.3277 14.9792 66.9236 17.4767 66.9959 20.0164C67.0682 22.5563 66.6153 25.0844 65.6658 27.4412C64.7163 29.7979 63.2908 31.9335 61.4782 33.7139C61.4406 33.7508 61.3995 33.7823 61.3577 33.8116L35.1889 59.7294C34.8246 60.0902 34.2377 60.0902 33.8734 59.7294L23.7208 49.6754C23.3542 49.3121 23.3513 48.7203 23.7144 48.3535C24.0776 47.9867 24.6694 47.984 25.0363 48.3471L34.5307 57.7493L60.1655 32.3619C60.2028 32.3249 60.2426 32.2917 60.2841 32.2624C61.8576 30.6858 63.0994 28.809 63.9322 26.7419C64.7853 24.624 65.1921 22.3527 65.1272 20.0703C65.0622 17.7877 64.5266 15.5425 63.5542 13.4763C62.5819 11.4102 61.1936 9.56668 59.4762 8.06176C57.7588 6.5569 55.7491 5.42307 53.5733 4.73051C51.3973 4.03795 49.1018 3.80133 46.8304 4.03669C44.559 4.27208 42.3602 4.97399 40.3724 6.09807C38.3848 7.22212 36.6507 8.74447 35.2783 10.5695C35.1013 10.8051 34.8235 10.9437 34.5288 10.9429C34.2341 10.9421 33.957 10.8016 33.7812 10.565C31.6934 7.75576 28.7701 5.67901 25.4307 4.63101C22.0913 3.58309 18.5061 3.61789 15.1877 4.73051C11.8692 5.84318 8.98776 7.97683 6.955 10.8261C4.92224 13.6754 3.84251 17.0944 3.87024 20.5943C3.87433 21.1105 3.45887 21.5322 2.94271 21.5365C2.42644 21.5406 2.00467 21.1252 2.00058 20.6089C1.96977 16.7147 3.17048 12.91 5.43225 9.73971C7.69405 6.56941 10.901 4.19566 14.5934 2.95762Z" fill="#EB5F85"/>
<path d="M24.0138 19.5691C24.4161 19.5691 24.7729 19.8266 24.9003 20.2082L28.1932 30.086H38.0363C38.5526 30.086 38.9711 30.5045 38.9711 31.0208C38.9711 31.5371 38.5526 31.9556 38.0363 31.9556H27.5194C27.1172 31.9556 26.7603 31.6982 26.633 31.3166L24.0138 23.4591L17.889 41.8334C17.7761 42.172 17.4805 42.4168 17.1268 42.4642C16.7729 42.5116 16.4228 42.3532 16.2248 42.0562L9.49109 31.9556H2.98014C2.46385 31.9556 2.04531 31.5371 2.04531 31.0208C2.04531 30.5045 2.46385 30.086 2.98014 30.086H9.99137C10.3039 30.086 10.5958 30.2422 10.7692 30.5022L16.7196 39.4288L23.1274 20.2082L23.1849 20.0712C23.344 19.7662 23.6617 19.5691 24.0138 19.5691Z" fill="#EB5F85"/>
<path d="M14.5934 2.95762C18.2858 1.71964 22.2755 1.68108 25.9912 2.84716C29.325 3.89346 32.2842 5.86251 34.5352 8.51365C35.9262 6.89397 37.5885 5.52426 39.4522 4.47033C41.6639 3.2196 44.1105 2.43899 46.6378 2.17708C49.165 1.91521 51.7191 2.17793 54.1402 2.94849C56.5614 3.71911 58.7976 4.98131 60.7086 6.65586C62.6196 8.33034 64.164 10.3813 65.2459 12.6802C66.3277 14.9792 66.9236 17.4767 66.9959 20.0164C67.0682 22.5563 66.6153 25.0844 65.6658 27.4412C64.7163 29.7979 63.2908 31.9335 61.4782 33.7139C61.4406 33.7508 61.3995 33.7823 61.3577 33.8116L35.1889 59.7294C34.8246 60.0902 34.2377 60.0902 33.8734 59.7294L23.7208 49.6754C23.3542 49.3121 23.3513 48.7203 23.7144 48.3535C24.0776 47.9867 24.6694 47.984 25.0363 48.3471L34.5307 57.7493L60.1655 32.3619C60.2028 32.3249 60.2426 32.2917 60.2841 32.2624C61.8576 30.6858 63.0994 28.809 63.9322 26.7419C64.7853 24.624 65.1921 22.3527 65.1272 20.0703C65.0622 17.7877 64.5266 15.5425 63.5542 13.4763C62.5819 11.4102 61.1936 9.56668 59.4762 8.06176C57.7588 6.5569 55.7491 5.42307 53.5733 4.73051C51.3973 4.03795 49.1018 3.80133 46.8304 4.03669C44.559 4.27208 42.3602 4.97399 40.3724 6.09807C38.3848 7.22212 36.6507 8.74447 35.2783 10.5695C35.1013 10.8051 34.8235 10.9437 34.5288 10.9429C34.2341 10.9421 33.957 10.8016 33.7812 10.565C31.6934 7.75576 28.7701 5.67901 25.4307 4.63101C22.0913 3.58309 18.5061 3.61789 15.1877 4.73051C11.8692 5.84318 8.98776 7.97683 6.955 10.8261C4.92224 13.6754 3.84251 17.0944 3.87024 20.5943C3.87433 21.1105 3.45887 21.5322 2.94271 21.5365C2.42644 21.5406 2.00467 21.1252 2.00058 20.6089C1.96977 16.7147 3.17048 12.91 5.43225 9.73971C7.69405 6.56941 10.901 4.19566 14.5934 2.95762Z" stroke="#EB5F85" stroke-width="4" stroke-linecap="round" stroke-linejoin="round"/>
<path d="M24.0138 19.5691C24.4161 19.5691 24.7729 19.8266 24.9003 20.2082L28.1932 30.086H38.0363C38.5526 30.086 38.9711 30.5045 38.9711 31.0208C38.9711 31.5371 38.5526 31.9556 38.0363 31.9556H27.5194C27.1172 31.9556 26.7603 31.6982 26.633 31.3166L24.0138 23.4591L17.889 41.8334C17.7761 42.172 17.4805 42.4168 17.1268 42.4642C16.7729 42.5116 16.4228 42.3532 16.2248 42.0562L9.49109 31.9556H2.98014C2.46385 31.9556 2.04531 31.5371 2.04531 31.0208C2.04531 30.5045 2.46385 30.086 2.98014 30.086H9.99137C10.3039 30.086 10.5958 30.2422 10.7692 30.5022L16.7196 39.4288L23.1274 20.2082L23.1849 20.0712C23.344 19.7662 23.6617 19.5691 24.0138 19.5691Z" stroke="#EB5F85" stroke-width="4" stroke-linecap="round" stroke-linejoin="round"/>
</svg>
