<svg width="55" height="57" viewBox="0 0 55 57" fill="none" xmlns="http://www.w3.org/2000/svg">
<path fill-rule="evenodd" clip-rule="evenodd" d="M6.89674 36.5652C7.56002 36.5652 8.08655 36.5647 8.51248 36.5937C8.88955 36.6194 9.22001 36.6695 9.52889 36.7775L9.66016 36.8278L9.66166 36.8285C10.5061 37.1798 11.177 37.8514 11.5272 38.6963L11.5774 38.8276C11.6872 39.1372 11.7382 39.4685 11.7642 39.8462C11.7936 40.2724 11.7935 40.7989 11.7935 41.462V50.1033C11.7935 50.7665 11.794 51.2931 11.765 51.719C11.7356 52.15 11.6741 52.5201 11.5309 52.8667L11.5302 52.8682C11.1788 53.7128 10.5067 54.3828 9.66166 54.733L9.66241 54.7337C9.31506 54.879 8.94399 54.941 8.51248 54.9707C8.08628 55.0001 7.5598 55 6.89674 55C6.23346 55 5.70693 55.0005 5.281 54.9715C4.85 54.9421 4.47993 54.8806 4.13332 54.7375L4.13182 54.7367C3.28736 54.3854 2.61647 53.7138 2.26629 52.8689L2.21603 52.7377C2.1063 52.428 2.05531 52.0967 2.02925 51.719C1.99986 51.2928 2 50.7663 2 50.1033V41.462C2 40.7987 1.9995 40.2721 2.0285 39.8462C2.05787 39.4152 2.11937 39.0452 2.26254 38.6985L2.26329 38.697C2.61461 37.8526 3.28619 37.1817 4.13107 36.8315L4.26234 36.7812C4.572 36.6715 4.90332 36.6205 5.281 36.5945C5.7072 36.5651 6.23368 36.5652 6.89674 36.5652ZM6.89674 37.7174C6.21763 37.7174 5.73715 37.7176 5.35976 37.7436C4.98801 37.7693 4.7584 37.8181 4.57589 37.8944L4.57364 37.8952C4.01039 38.1282 3.56156 38.5748 3.32695 39.1374L3.3277 39.1381C3.25198 39.3214 3.2038 39.5524 3.17843 39.925C3.15272 40.3027 3.15217 40.7831 3.15217 41.462V50.1033C3.15217 50.7824 3.15239 51.2628 3.17843 51.6402C3.2041 52.012 3.25286 52.2416 3.3292 52.4241L3.32995 52.4264C3.56305 52.9897 4.01018 53.4377 4.57289 53.6723C4.75621 53.748 4.98723 53.7962 5.35976 53.8216C5.73744 53.8473 6.21784 53.8478 6.89674 53.8478C7.57585 53.8478 8.05633 53.8476 8.43372 53.8216C8.80547 53.7959 9.03508 53.7471 9.21759 53.6708L9.21984 53.67C9.78312 53.437 10.2304 52.9897 10.465 52.4271C10.5407 52.2438 10.5897 52.0128 10.6151 51.6402C10.6408 51.2626 10.6413 50.7822 10.6413 50.1033V41.462C10.6413 40.7828 10.6411 40.3024 10.6151 39.925C10.5894 39.5532 10.5406 39.3236 10.4643 39.1411L10.4635 39.1389C10.2304 38.5755 9.7833 38.1275 9.22059 37.8929L9.07207 37.8412C8.91249 37.7945 8.71295 37.7627 8.43372 37.7436C8.05604 37.7179 7.57564 37.7174 6.89674 37.7174Z" fill="#EB5F85"/>
<path fill-rule="evenodd" clip-rule="evenodd" d="M27.0598 29.3641C27.7231 29.3641 28.2496 29.3636 28.6755 29.3926C29.0526 29.4183 29.3831 29.4684 29.6919 29.5764L29.8232 29.6267L29.8247 29.6274C30.6692 29.9787 31.3401 30.6503 31.6902 31.4952L31.7405 31.6265C31.8502 31.9361 31.9012 32.2674 31.9273 32.6451C31.9567 33.0713 31.9565 33.5978 31.9565 34.2609V50.1033C31.9565 50.7665 31.957 51.2931 31.928 51.719C31.8986 52.15 31.8371 52.5201 31.694 52.8667L31.6932 52.8682C31.3419 53.7128 30.6698 54.3828 29.8247 54.733L29.8254 54.7337C29.4781 54.879 29.107 54.941 28.6755 54.9707C28.2493 55.0001 27.7228 55 27.0598 55C26.3965 55 25.87 55.0005 25.444 54.9715C25.013 54.9421 24.643 54.8806 24.2964 54.7375L24.2949 54.7367C23.4504 54.3854 22.7795 53.7138 22.4293 52.8689C22.284 52.5216 22.2221 52.1505 22.1923 51.719C22.1629 51.2928 22.163 50.7663 22.163 50.1033V34.2609C22.163 33.5976 22.1625 33.0711 22.1915 32.6451C22.2209 32.2141 22.2824 31.8441 22.4256 31.4975L22.4263 31.496C22.7776 30.6516 23.4494 29.9814 24.2941 29.6312C24.6415 29.4858 25.0125 29.4232 25.444 29.3934C25.8702 29.364 26.3967 29.3641 27.0598 29.3641ZM27.0598 30.5163C26.3807 30.5163 25.9002 30.5165 25.5228 30.5426C25.1511 30.5682 24.9214 30.617 24.7389 30.6933L24.7367 30.6941C24.1734 30.9271 23.7246 31.3737 23.49 31.9363L23.4907 31.937C23.415 32.1203 23.3668 32.3514 23.3415 32.7239C23.3158 33.1016 23.3152 33.582 23.3152 34.2609V50.1033C23.3152 50.7824 23.3154 51.2628 23.3415 51.6402C23.3671 52.012 23.4159 52.2416 23.4922 52.4241L23.493 52.4264C23.7261 52.9897 24.1732 53.4377 24.7359 53.6723C24.9192 53.748 25.1503 53.7962 25.5228 53.8216C25.9005 53.8473 26.3809 53.8478 27.0598 53.8478C27.7389 53.8478 28.2194 53.8476 28.5968 53.8216C28.9685 53.7959 29.1981 53.7471 29.3806 53.6708L29.3829 53.67C29.9462 53.437 30.3935 52.9897 30.6281 52.4271C30.7038 52.2438 30.7527 52.0128 30.7781 51.6402C30.8038 51.2626 30.8043 50.7822 30.8043 50.1033V34.2609C30.8043 33.5818 30.8041 33.1013 30.7781 32.7239C30.7524 32.3521 30.7037 32.1225 30.6273 31.94L30.6266 31.9378C30.3935 31.3744 29.9463 30.9264 29.3836 30.6918L29.2351 30.6401C29.0755 30.5934 28.876 30.5616 28.5968 30.5426C28.2191 30.5168 27.7387 30.5163 27.0598 30.5163Z" fill="#EB5F85"/>
<path fill-rule="evenodd" clip-rule="evenodd" d="M47.2228 19.2826C47.8861 19.2826 48.4126 19.2821 48.8386 19.3111C49.2156 19.3368 49.5461 19.3869 49.855 19.4949L49.9862 19.5451L49.9877 19.5459C50.8322 19.8972 51.5031 20.5688 51.8533 21.4137L51.9035 21.545C52.0133 21.8546 52.0643 22.1859 52.0903 22.5636C52.1197 22.9898 52.1196 23.5163 52.1196 24.1793V50.1033C52.1196 50.7665 52.1201 51.2931 52.0911 51.719C52.0617 52.15 52.0002 52.5201 51.857 52.8667L51.8563 52.8682C51.5049 53.7128 50.8328 54.3828 49.9877 54.733L49.9885 54.7337C49.6411 54.879 49.2701 54.941 48.8386 54.9707C48.4124 55.0001 47.8859 55 47.2228 55C46.5595 55 46.033 55.0005 45.6071 54.9715C45.1761 54.9421 44.806 54.8806 44.4594 54.7375L44.4579 54.7367C43.6134 54.3854 42.9426 53.7138 42.5924 52.8689L42.5421 52.7377C42.4324 52.428 42.3814 52.0967 42.3553 51.719C42.3259 51.2928 42.3261 50.7663 42.3261 50.1033V24.1793C42.3261 23.5161 42.3256 22.9895 42.3546 22.5636C42.384 22.1326 42.4455 21.7625 42.5886 21.4159L42.5894 21.4144C42.9407 20.5701 43.6124 19.8999 44.4572 19.5496C44.8045 19.4043 45.1756 19.3416 45.6071 19.3119C46.0333 19.2825 46.5598 19.2826 47.2228 19.2826ZM47.2228 20.4348C46.5437 20.4348 46.0632 20.435 45.6858 20.461C45.3141 20.4867 45.0845 20.5355 44.902 20.6118L44.8997 20.6126C44.3365 20.8456 43.8876 21.2922 43.653 21.8547L43.6538 21.8555C43.5781 22.0388 43.5299 22.2698 43.5045 22.6424C43.4788 23.02 43.4783 23.5005 43.4783 24.1793V50.1033C43.4783 50.7824 43.4785 51.2629 43.5045 51.6402C43.5302 52.012 43.5789 52.2416 43.6553 52.4241L43.656 52.4264C43.8891 52.9897 44.3363 53.4377 44.899 53.6723C45.0823 53.748 45.3133 53.7962 45.6858 53.8216C46.0635 53.8473 46.5439 53.8478 47.2228 53.8478C47.9019 53.8478 48.3824 53.8476 48.7598 53.8216C49.1316 53.7959 49.3612 53.7471 49.5437 53.6708L49.5459 53.67C50.1092 53.437 50.5565 52.9897 50.7911 52.4271C50.8668 52.2438 50.9158 52.0128 50.9411 51.6402C50.9668 51.2626 50.9674 50.7822 50.9674 50.1033V24.1793C50.9674 23.5002 50.9672 23.0198 50.9411 22.6424C50.9155 22.2706 50.8667 22.041 50.7904 21.8585L50.7896 21.8562C50.5565 21.2929 50.1094 20.8449 49.5467 20.6103L49.3982 20.5586C49.2386 20.5119 49.039 20.4801 48.7598 20.461C48.3821 20.4353 47.9017 20.4348 47.2228 20.4348Z" fill="#EB5F85"/>
<path d="M46.7728 3.65625C46.9715 3.40781 47.3344 3.36748 47.5829 3.56624C47.8313 3.76499 47.8717 4.12791 47.6729 4.37636L47.2228 4.0163C47.6727 4.37618 47.6724 4.37679 47.6721 4.37711L47.6691 4.38011C47.6673 4.38239 47.6649 4.38588 47.6616 4.38986C47.6551 4.39792 47.6454 4.40948 47.6331 4.42437C47.6086 4.45409 47.5728 4.49734 47.5251 4.55339C47.4296 4.66577 47.2872 4.8305 47.0961 5.04171C46.7139 5.46413 46.1368 6.07477 45.3513 6.83748C43.7802 8.36301 41.3744 10.4957 38.0212 12.9427C31.3139 17.8372 20.8194 23.9866 5.6388 29.0468C5.33696 29.1474 5.0103 28.9841 4.90969 28.6823C4.80908 28.3804 4.97241 28.0538 5.27425 27.9532C20.338 22.9319 30.7269 16.8394 37.3416 12.0125C40.6493 9.5988 43.0143 7.50074 44.5487 6.01086C45.3159 5.26591 45.8756 4.67291 46.2417 4.26834C46.4247 4.0661 46.5595 3.91051 46.6475 3.80702C46.6913 3.75553 46.7234 3.71679 46.7443 3.69151C46.7547 3.67883 46.7627 3.66961 46.7675 3.66375C46.7697 3.66109 46.771 3.65897 46.772 3.65775L46.7728 3.65625Z" fill="#EB5F85"/>
<path d="M48.663 2C48.9812 2 49.2391 2.25792 49.2391 2.57609V11.2174C49.2391 11.5356 48.9812 11.7935 48.663 11.7935C48.3449 11.7935 48.087 11.5356 48.087 11.2174V3.15217H40.0217C39.7036 3.15217 39.4457 2.89425 39.4457 2.57609C39.4457 2.25792 39.7036 2 40.0217 2H48.663Z" fill="#EB5F85"/>
<path fill-rule="evenodd" clip-rule="evenodd" d="M6.89674 36.5652C7.56002 36.5652 8.08655 36.5647 8.51248 36.5937C8.88955 36.6194 9.22001 36.6695 9.52889 36.7775L9.66016 36.8278L9.66166 36.8285C10.5061 37.1798 11.177 37.8514 11.5272 38.6963L11.5774 38.8276C11.6872 39.1372 11.7382 39.4685 11.7642 39.8462C11.7936 40.2724 11.7935 40.7989 11.7935 41.462V50.1033C11.7935 50.7665 11.794 51.2931 11.765 51.719C11.7356 52.15 11.6741 52.5201 11.5309 52.8667L11.5302 52.8682C11.1788 53.7128 10.5067 54.3828 9.66166 54.733L9.66241 54.7337C9.31506 54.879 8.94399 54.941 8.51248 54.9707C8.08628 55.0001 7.5598 55 6.89674 55C6.23346 55 5.70693 55.0005 5.281 54.9715C4.85 54.9421 4.47993 54.8806 4.13332 54.7375L4.13182 54.7367C3.28736 54.3854 2.61647 53.7138 2.26629 52.8689L2.21603 52.7377C2.1063 52.428 2.05531 52.0967 2.02925 51.719C1.99986 51.2928 2 50.7663 2 50.1033V41.462C2 40.7987 1.9995 40.2721 2.0285 39.8462C2.05787 39.4152 2.11937 39.0452 2.26254 38.6985L2.26329 38.697C2.61461 37.8526 3.28619 37.1817 4.13107 36.8315L4.26234 36.7812C4.572 36.6715 4.90332 36.6205 5.281 36.5945C5.7072 36.5651 6.23368 36.5652 6.89674 36.5652ZM6.89674 37.7174C6.21763 37.7174 5.73715 37.7176 5.35976 37.7436C4.98801 37.7693 4.7584 37.8181 4.57589 37.8944L4.57364 37.8952C4.01039 38.1282 3.56156 38.5748 3.32695 39.1374L3.3277 39.1381C3.25198 39.3214 3.2038 39.5524 3.17843 39.925C3.15272 40.3027 3.15217 40.7831 3.15217 41.462V50.1033C3.15217 50.7824 3.15239 51.2628 3.17843 51.6402C3.2041 52.012 3.25286 52.2416 3.3292 52.4241L3.32995 52.4264C3.56305 52.9897 4.01018 53.4377 4.57289 53.6723C4.75621 53.748 4.98723 53.7962 5.35976 53.8216C5.73744 53.8473 6.21784 53.8478 6.89674 53.8478C7.57585 53.8478 8.05633 53.8476 8.43372 53.8216C8.80547 53.7959 9.03508 53.7471 9.21759 53.6708L9.21984 53.67C9.78312 53.437 10.2304 52.9897 10.465 52.4271C10.5407 52.2438 10.5897 52.0128 10.6151 51.6402C10.6408 51.2626 10.6413 50.7822 10.6413 50.1033V41.462C10.6413 40.7828 10.6411 40.3024 10.6151 39.925C10.5894 39.5532 10.5406 39.3236 10.4643 39.1411L10.4635 39.1389C10.2304 38.5755 9.7833 38.1275 9.22059 37.8929L9.07207 37.8412C8.91249 37.7945 8.71295 37.7627 8.43372 37.7436C8.05604 37.7179 7.57564 37.7174 6.89674 37.7174Z" stroke="#EB5F85" stroke-width="4" stroke-linejoin="round"/>
<path fill-rule="evenodd" clip-rule="evenodd" d="M27.0598 29.3641C27.7231 29.3641 28.2496 29.3636 28.6755 29.3926C29.0526 29.4183 29.3831 29.4684 29.6919 29.5764L29.8232 29.6267L29.8247 29.6274C30.6692 29.9787 31.3401 30.6503 31.6902 31.4952L31.7405 31.6265C31.8502 31.9361 31.9012 32.2674 31.9273 32.6451C31.9567 33.0713 31.9565 33.5978 31.9565 34.2609V50.1033C31.9565 50.7665 31.957 51.2931 31.928 51.719C31.8986 52.15 31.8371 52.5201 31.694 52.8667L31.6932 52.8682C31.3419 53.7128 30.6698 54.3828 29.8247 54.733L29.8254 54.7337C29.4781 54.879 29.107 54.941 28.6755 54.9707C28.2493 55.0001 27.7228 55 27.0598 55C26.3965 55 25.87 55.0005 25.444 54.9715C25.013 54.9421 24.643 54.8806 24.2964 54.7375L24.2949 54.7367C23.4504 54.3854 22.7795 53.7138 22.4293 52.8689C22.284 52.5216 22.2221 52.1505 22.1923 51.719C22.1629 51.2928 22.163 50.7663 22.163 50.1033V34.2609C22.163 33.5976 22.1625 33.0711 22.1915 32.6451C22.2209 32.2141 22.2824 31.8441 22.4256 31.4975L22.4263 31.496C22.7776 30.6516 23.4494 29.9814 24.2941 29.6312C24.6415 29.4858 25.0125 29.4232 25.444 29.3934C25.8702 29.364 26.3967 29.3641 27.0598 29.3641ZM27.0598 30.5163C26.3807 30.5163 25.9002 30.5165 25.5228 30.5426C25.1511 30.5682 24.9214 30.617 24.7389 30.6933L24.7367 30.6941C24.1734 30.9271 23.7246 31.3737 23.49 31.9363L23.4907 31.937C23.415 32.1203 23.3668 32.3514 23.3415 32.7239C23.3158 33.1016 23.3152 33.582 23.3152 34.2609V50.1033C23.3152 50.7824 23.3154 51.2628 23.3415 51.6402C23.3671 52.012 23.4159 52.2416 23.4922 52.4241L23.493 52.4264C23.7261 52.9897 24.1732 53.4377 24.7359 53.6723C24.9192 53.748 25.1503 53.7962 25.5228 53.8216C25.9005 53.8473 26.3809 53.8478 27.0598 53.8478C27.7389 53.8478 28.2194 53.8476 28.5968 53.8216C28.9685 53.7959 29.1981 53.7471 29.3806 53.6708L29.3829 53.67C29.9462 53.437 30.3935 52.9897 30.6281 52.4271C30.7038 52.2438 30.7527 52.0128 30.7781 51.6402C30.8038 51.2626 30.8043 50.7822 30.8043 50.1033V34.2609C30.8043 33.5818 30.8041 33.1013 30.7781 32.7239C30.7524 32.3521 30.7037 32.1225 30.6273 31.94L30.6266 31.9378C30.3935 31.3744 29.9463 30.9264 29.3836 30.6918L29.2351 30.6401C29.0755 30.5934 28.876 30.5616 28.5968 30.5426C28.2191 30.5168 27.7387 30.5163 27.0598 30.5163Z" stroke="#EB5F85" stroke-width="4" stroke-linejoin="round"/>
<path fill-rule="evenodd" clip-rule="evenodd" d="M47.2228 19.2826C47.8861 19.2826 48.4126 19.2821 48.8386 19.3111C49.2156 19.3368 49.5461 19.3869 49.855 19.4949L49.9862 19.5451L49.9877 19.5459C50.8322 19.8972 51.5031 20.5688 51.8533 21.4137L51.9035 21.545C52.0133 21.8546 52.0643 22.1859 52.0903 22.5636C52.1197 22.9898 52.1196 23.5163 52.1196 24.1793V50.1033C52.1196 50.7665 52.1201 51.2931 52.0911 51.719C52.0617 52.15 52.0002 52.5201 51.857 52.8667L51.8563 52.8682C51.5049 53.7128 50.8328 54.3828 49.9877 54.733L49.9885 54.7337C49.6411 54.879 49.2701 54.941 48.8386 54.9707C48.4124 55.0001 47.8859 55 47.2228 55C46.5595 55 46.033 55.0005 45.6071 54.9715C45.1761 54.9421 44.806 54.8806 44.4594 54.7375L44.4579 54.7367C43.6134 54.3854 42.9426 53.7138 42.5924 52.8689L42.5421 52.7377C42.4324 52.428 42.3814 52.0967 42.3553 51.719C42.3259 51.2928 42.3261 50.7663 42.3261 50.1033V24.1793C42.3261 23.5161 42.3256 22.9895 42.3546 22.5636C42.384 22.1326 42.4455 21.7625 42.5886 21.4159L42.5894 21.4144C42.9407 20.5701 43.6124 19.8999 44.4572 19.5496C44.8045 19.4043 45.1756 19.3416 45.6071 19.3119C46.0333 19.2825 46.5598 19.2826 47.2228 19.2826ZM47.2228 20.4348C46.5437 20.4348 46.0632 20.435 45.6858 20.461C45.3141 20.4867 45.0845 20.5355 44.902 20.6118L44.8997 20.6126C44.3365 20.8456 43.8876 21.2922 43.653 21.8547L43.6538 21.8555C43.5781 22.0388 43.5299 22.2698 43.5045 22.6424C43.4788 23.02 43.4783 23.5005 43.4783 24.1793V50.1033C43.4783 50.7824 43.4785 51.2629 43.5045 51.6402C43.5302 52.012 43.5789 52.2416 43.6553 52.4241L43.656 52.4264C43.8891 52.9897 44.3363 53.4377 44.899 53.6723C45.0823 53.748 45.3133 53.7962 45.6858 53.8216C46.0635 53.8473 46.5439 53.8478 47.2228 53.8478C47.9019 53.8478 48.3824 53.8476 48.7598 53.8216C49.1316 53.7959 49.3612 53.7471 49.5437 53.6708L49.5459 53.67C50.1092 53.437 50.5565 52.9897 50.7911 52.4271C50.8668 52.2438 50.9158 52.0128 50.9411 51.6402C50.9668 51.2626 50.9674 50.7822 50.9674 50.1033V24.1793C50.9674 23.5002 50.9672 23.0198 50.9411 22.6424C50.9155 22.2706 50.8667 22.041 50.7904 21.8585L50.7896 21.8562C50.5565 21.2929 50.1094 20.8449 49.5467 20.6103L49.3982 20.5586C49.2386 20.5119 49.039 20.4801 48.7598 20.461C48.3821 20.4353 47.9017 20.4348 47.2228 20.4348Z" stroke="#EB5F85" stroke-width="4" stroke-linejoin="round"/>
<path d="M46.7728 3.65625C46.9715 3.40781 47.3344 3.36748 47.5829 3.56624C47.8313 3.76499 47.8717 4.12791 47.6729 4.37636L47.2228 4.0163C47.6727 4.37618 47.6724 4.37679 47.6721 4.37711L47.6691 4.38011C47.6673 4.38239 47.6649 4.38588 47.6616 4.38986C47.6551 4.39792 47.6454 4.40948 47.6331 4.42437C47.6086 4.45409 47.5728 4.49734 47.5251 4.55339C47.4296 4.66577 47.2872 4.8305 47.0961 5.04171C46.7139 5.46413 46.1368 6.07477 45.3513 6.83748C43.7802 8.36301 41.3744 10.4957 38.0212 12.9427C31.3139 17.8372 20.8194 23.9866 5.6388 29.0468C5.33696 29.1474 5.0103 28.9841 4.90969 28.6823C4.80908 28.3804 4.97241 28.0538 5.27425 27.9532C20.338 22.9319 30.7269 16.8394 37.3416 12.0125C40.6493 9.5988 43.0143 7.50074 44.5487 6.01086C45.3159 5.26591 45.8756 4.67291 46.2417 4.26834C46.4247 4.0661 46.5595 3.91051 46.6475 3.80702C46.6913 3.75553 46.7234 3.71679 46.7443 3.69151C46.7547 3.67883 46.7627 3.66961 46.7675 3.66375C46.7697 3.66109 46.771 3.65897 46.772 3.65775L46.7728 3.65625Z" stroke="#EB5F85" stroke-width="4" stroke-linejoin="round"/>
<path d="M48.663 2C48.9812 2 49.2391 2.25792 49.2391 2.57609V11.2174C49.2391 11.5356 48.9812 11.7935 48.663 11.7935C48.3449 11.7935 48.087 11.5356 48.087 11.2174V3.15217H40.0217C39.7036 3.15217 39.4457 2.89425 39.4457 2.57609C39.4457 2.25792 39.7036 2 40.0217 2H48.663Z" stroke="#EB5F85" stroke-width="4" stroke-linejoin="round"/>
</svg>
