<svg width="124" height="44" viewBox="0 0 124 44" fill="none" xmlns="http://www.w3.org/2000/svg">
<path d="M33.3296 19.3799V19.0999H35.0296L40.9896 4.57988H41.5296L47.8296 19.0999H49.5496V19.3799H42.8296V19.0999H44.6896L42.3696 13.7399H37.5696L35.3496 19.0999H37.1296V19.3799H33.3296ZM42.2696 13.4599L39.9096 7.99988L37.6696 13.4599H42.2696ZM51.5654 19.0999V5.41988H49.7254V5.13988H52.7454C53.3054 5.13988 53.8454 5.11988 54.4054 5.09988C54.9654 5.09988 55.5254 5.07988 56.0654 5.07988C58.1654 5.07988 60.9654 5.83988 60.9654 8.49988C60.9654 10.6399 58.8254 11.4599 57.0254 11.5999V11.6999C59.6254 12.1599 61.1854 12.4399 61.4054 15.3199C61.6654 18.6599 61.6454 19.2199 62.5854 19.2199C63.1254 19.2199 63.4454 18.8199 63.7054 18.5599L63.9054 18.7399C63.3654 19.2799 63.0254 19.6799 61.5654 19.6799C58.6254 19.6799 58.5254 17.5599 58.4654 16.1599C58.3654 13.9799 58.2654 11.8799 55.7854 11.8799H54.4654V19.0999H56.3054V19.3799H49.7254V19.0999H51.5654ZM54.4654 5.41988V11.5999H55.2854C57.6854 11.5999 57.8854 10.1799 57.8854 8.71988C57.8854 6.37988 57.3454 5.35988 55.3454 5.35988C55.0454 5.35988 54.7654 5.39988 54.4654 5.41988ZM68.7074 19.0999V5.41988H67.9874C66.0074 5.41988 64.9274 6.07988 64.1474 8.79988H63.8874V5.13988H76.4274V8.79988H76.1674C75.3874 6.07988 74.3074 5.41988 72.3274 5.41988H71.6074V19.0999H73.4474V19.3799H66.8674V19.0999H68.7074ZM77.949 5.41988V5.13988H89.909V8.55988H89.649C89.369 7.67988 88.509 5.41988 85.869 5.41988H82.689V11.5999H83.809C85.769 11.5999 86.449 10.4199 86.829 8.61988H87.089V14.8399H86.829C86.469 13.2799 85.869 11.8799 84.029 11.8799H82.689V19.0999H85.969C88.429 19.0999 89.929 17.3199 90.469 14.9999H90.729V19.3799H77.949V19.0999H79.789V5.41988H77.949ZM83.689 0.619882L85.449 4.13988H85.189L82.369 1.13988C82.209 0.959882 82.189 0.699883 82.189 0.599881C82.189 0.199882 82.629 -0.000118017 82.849 -0.000118017C83.369 -0.000118017 83.549 0.339882 83.689 0.619882ZM-0.000468761 43.3799V43.0999H1.69953L7.65953 28.5799H8.19953L14.4995 43.0999H16.2195V43.3799H9.49953V43.0999H11.3595L9.03953 37.7399H4.23953L2.01953 43.0999H3.79953V43.3799H-0.000468761ZM8.93953 37.4599L6.57953 31.9999L4.33953 37.4599H8.93953ZM16.4353 29.4199V29.1399H28.3953V32.5599H28.1353C27.8553 31.6799 26.9953 29.4199 24.3553 29.4199H21.1753V35.5999H22.2953C24.2553 35.5999 24.9353 34.4199 25.3153 32.6199H25.5753V38.8399H25.3153C24.9553 37.2799 24.3553 35.8799 22.5153 35.8799H21.1753V43.0999H24.4553C26.9153 43.0999 28.4153 41.3199 28.9553 38.9999H29.2153V43.3799H16.4353V43.0999H18.2753V29.4199H16.4353ZM31.3889 43.3799V38.9399H31.6889C31.8089 39.5799 32.2089 41.1199 33.3089 42.1999C34.5289 43.3999 35.6089 43.3999 36.4089 43.3999C39.2089 43.3999 39.9289 41.3399 39.9289 40.2999C39.9289 36.3199 31.6889 38.6799 31.6889 32.9399C31.6889 30.8199 33.6889 28.8199 36.5089 28.8199C38.2689 28.8199 39.1089 29.5599 39.7489 29.5599C40.1089 29.5599 40.1889 29.4599 40.3089 29.1399H40.6289V32.9399H40.3689C39.7489 31.0999 39.0889 29.0999 36.4889 29.0999C34.3689 29.0999 33.1889 30.4199 33.1889 31.5999C33.1889 35.2999 41.7689 33.5199 41.7689 38.8199C41.7689 41.4399 39.5089 43.6799 36.2489 43.6799C34.6089 43.6799 32.8689 42.9199 32.3289 42.9199C31.9689 42.9199 31.8489 43.0199 31.7089 43.3799H31.3889ZM48.6977 43.0999V29.4199H47.9777C45.9977 29.4199 44.9177 30.0799 44.1377 32.7999H43.8777V29.1399H56.4177V32.7999H56.1577C55.3777 30.0799 54.2977 29.4199 52.3177 29.4199H51.5977V43.0999H53.4377V43.3799H46.8577V43.0999H48.6977ZM57.8992 29.4199V29.1399H64.4792V29.4199H62.6392V35.9799H68.4192V29.4199H66.5792V29.1399H73.1592V29.4199H71.3192V43.0999H73.1592V43.3799H66.5792V43.0999H68.4192V36.2599H62.6392V43.0999H64.4792V43.3799H57.8992V43.0999H59.7392V29.4199H57.8992ZM74.5994 29.4199V29.1399H86.5594V32.5599H86.2994C86.0194 31.6799 85.1594 29.4199 82.5194 29.4199H79.3394V35.5999H80.4594C82.4194 35.5999 83.0994 34.4199 83.4794 32.6199H83.7394V38.8399H83.4794C83.1194 37.2799 82.5194 35.8799 80.6794 35.8799H79.3394V43.0999H82.6194C85.0794 43.0999 86.5794 41.3199 87.1194 38.9999H87.3794V43.3799H74.5994V43.0999H76.4394V29.4199H74.5994ZM93.893 43.0999V29.4199H93.173C91.193 29.4199 90.113 30.0799 89.333 32.7999H89.073V29.1399H101.613V32.7999H101.353C100.573 30.0799 99.493 29.4199 97.513 29.4199H96.793V43.0999H98.633V43.3799H92.053V43.0999H93.893ZM103.175 29.4199V29.1399H109.755V29.4199H107.915V43.0999H109.755V43.3799H103.175V43.0999H105.015V29.4199H103.175ZM123.679 29.1399V33.2199H123.419C122.839 31.4399 121.939 29.0999 119.059 29.0999C115.179 29.0999 114.819 32.1399 114.819 36.3399C114.819 41.8599 116.059 43.3999 119.059 43.3999C121.439 43.3999 122.999 41.2799 123.479 39.1399H123.799V43.3799H123.479C123.339 43.0599 123.199 42.9599 122.819 42.9599C122.199 42.9599 120.739 43.6799 119.039 43.6799C115.119 43.6799 111.559 40.4199 111.559 36.2999C111.559 31.7799 115.619 28.8199 119.039 28.8199C120.699 28.8199 122.019 29.5599 122.739 29.5599C123.099 29.5599 123.279 29.4999 123.359 29.1399H123.679Z" fill="#E5E5E3"/>
</svg>
