<svg width="52" height="52" viewBox="0 0 52 52" fill="none" xmlns="http://www.w3.org/2000/svg">
<g clip-path="url(#clip0_217_123)">
<rect width="52" height="52" rx="10" fill="white"/>
<path fill-rule="evenodd" clip-rule="evenodd" d="M7.45846 -4.04492C4.5609 -4.04492 1.78202 -2.89387 -0.266864 -0.844989C-2.31575 1.20389 -3.4668 3.98277 -3.4668 6.88033V45.1187C-3.4668 48.0163 -2.31575 50.7952 -0.266864 52.844C1.78202 54.8929 4.5609 56.044 7.45846 56.044H45.6968C48.5944 56.044 51.3733 54.8929 53.4222 52.844C55.471 50.7952 56.6221 48.0163 56.6221 45.1187V6.88033C56.6221 3.98277 55.471 1.20389 53.4222 -0.844989C51.3733 -2.89387 48.5944 -4.04492 45.6968 -4.04492H7.45846ZM26.5776 9.67173C15.2645 9.67173 6.0928 16.0958 6.0928 24.0166C6.0928 30.9077 13.0303 36.6626 22.284 38.0473C21.4919 40.6448 16.592 45.0559 16.592 45.0559C20.495 45.0559 28.1891 43.1276 31.2181 37.9927C40.297 36.5178 47.0625 30.823 47.0625 24.0166C47.0625 16.0958 37.8907 9.67173 26.5776 9.67173ZM43.6975 23.6397C43.6975 15.7052 29.3718 12.2282 29.3718 12.2282C29.3718 12.2282 38.8686 16.8223 39.6961 23.6397C40.3134 28.7663 34.3947 34.666 34.3947 34.666C34.3947 34.666 43.6975 31.5741 43.6975 23.6397Z" fill="#EB5F85"/>
</g>
<defs>
<clipPath id="clip0_217_123">
<rect width="52" height="52" rx="10" fill="white"/>
</clipPath>
</defs>
</svg>
