<svg width="52" height="52" viewBox="0 0 52 52" fill="none" xmlns="http://www.w3.org/2000/svg">
<g clip-path="url(#clip0_217_123)">
<rect width="51.33" height="51.33" rx="10" fill="white"/>
<path fill-rule="evenodd" clip-rule="evenodd" d="M9.33333 0C6.85798 0 4.48401 0.983331 2.73367 2.73367C0.983331 4.48401 0 6.85798 0 9.33333V42C0 44.4753 0.983331 46.8493 2.73367 48.5997C4.48401 50.35 6.85798 51.3333 9.33333 51.3333H42C44.4753 51.3333 46.8493 50.35 48.5997 48.5997C50.35 46.8493 51.3333 44.4753 51.3333 42V9.33333C51.3333 6.85798 50.35 4.48401 48.5997 2.73367C46.8493 0.983331 44.4753 0 42 0H9.33333ZM25.6667 11.718C16.002 11.718 8.16667 17.206 8.16667 23.9727C8.16667 29.8597 14.0933 34.776 21.9987 35.959C21.322 38.178 17.136 41.9463 17.136 41.9463C20.4703 41.9463 27.0433 40.299 29.631 35.9123C37.387 34.6523 43.1667 29.7873 43.1667 23.9727C43.1667 17.206 35.3313 11.718 25.6667 11.718ZM40.292 23.6507C40.292 16.8723 28.0537 13.902 28.0537 13.902C28.0537 13.902 36.1667 17.8267 36.8737 23.6507C37.401 28.0303 32.3447 33.0703 32.3447 33.0703C32.3447 33.0703 40.292 30.429 40.292 23.6507Z" fill="#EB5F85"/>
</g>
<defs>
<clipPath id="clip0_217_123">
<rect width="51.33" height="51.33" rx="10" fill="white"/>
</clipPath>
</defs>
</svg>
